<svg width="15" height="20" viewBox="0 0 15 20" fill="none" xmlns="http://www.w3.org/2000/svg">
<path d="M7.03125 0C3.15227 0 0 3.15234 0 7.03125C0 8.34375 0.363359 9.62113 1.05473 10.7227L6.55461 19.7232C6.64844 19.8756 6.78906 19.9694 6.95316 19.9928C7.17574 20.0279 7.42195 19.9342 7.55082 19.7116L13.0664 10.6289C13.7226 9.55082 14.0625 8.29691 14.0625 7.03125C14.0625 3.15234 10.9102 0 7.03125 0ZM7.03125 10.5469C5.06258 10.5469 3.51562 8.95312 3.51562 7.03125C3.51562 5.09762 5.09762 3.51562 7.03125 3.51562C8.96488 3.51562 10.5469 5.09762 10.5469 7.03125C10.5469 8.94141 9.0234 10.5469 7.03125 10.5469Z" fill="#FD003A"/>
<path d="M7.03125 0V3.51562C8.96488 3.51562 10.5469 5.09762 10.5469 7.03125C10.5469 8.94141 9.0234 10.5469 7.03125 10.5469V19.9996C7.23121 20.0043 7.43684 19.9084 7.55078 19.7116L13.0664 10.6289C13.7226 9.55082 14.0625 8.29691 14.0625 7.03125C14.0625 3.15234 10.9102 0 7.03125 0Z" fill="#E50027"/>
</svg>
