<svg width="13" height="15" viewBox="0 0 13 15" fill="none" xmlns="http://www.w3.org/2000/svg">
<path d="M12.1295 10.485L11.829 9.985C11.4394 9.33587 11.2335 8.59306 11.2335 7.836V5.076C11.2335 2.277 8.95696 0 6.15796 0C3.35896 0 1.08246 2.277 1.08246 5.0755V7.8355C1.08246 8.5925 0.876456 9.3355 0.486956 9.9845L0.186457 10.485C0.0673666 10.6806 0.00300534 10.9045 0.000102718 11.1335C-0.0027999 11.3624 0.0558627 11.588 0.169957 11.7865C0.281441 11.9865 0.444636 12.1529 0.642464 12.2682C0.840291 12.3835 1.06548 12.4435 1.29446 12.442H11.022C11.4935 12.442 11.914 12.197 12.1465 11.7865C12.2604 11.5879 12.3189 11.3624 12.3159 11.1334C12.3129 10.9045 12.2485 10.6806 12.1295 10.485ZM11.363 11.343C11.3294 11.4039 11.2799 11.4545 11.2199 11.4895C11.1599 11.5246 11.0915 11.5427 11.022 11.542H1.29396C1.22443 11.5428 1.15598 11.5247 1.09592 11.4897C1.03587 11.4546 0.986452 11.4039 0.952956 11.343C0.918023 11.2829 0.900038 11.2145 0.900918 11.1451C0.901799 11.0756 0.921512 11.0077 0.957956 10.9485L1.25846 10.4485C1.73213 9.65939 1.98238 8.75636 1.98246 7.836V5.076C1.98196 2.773 3.85546 0.9 6.15796 0.9C8.46046 0.9 10.334 2.7735 10.334 5.076V7.836C10.334 8.756 10.584 9.6595 11.058 10.4485L11.3585 10.9485C11.3947 11.0077 11.4143 11.0757 11.4151 11.1451C11.4159 11.2146 11.3979 11.283 11.363 11.343ZM7.70146 13.329C7.37296 13.749 6.79596 14 6.15796 14C5.51996 14 4.94296 13.749 4.61446 13.329C4.53925 13.2399 4.43242 13.1834 4.31642 13.1714C4.20042 13.1594 4.08429 13.1929 3.99247 13.2648C3.90064 13.3367 3.84027 13.4414 3.82404 13.5568C3.80781 13.6723 3.837 13.7896 3.90546 13.884C4.40296 14.52 5.24546 14.9 6.15796 14.9C7.07046 14.9 7.91296 14.52 8.41046 13.8835C8.48397 13.7894 8.51716 13.6701 8.50272 13.5516C8.48829 13.4331 8.42741 13.3251 8.33346 13.2515C8.23925 13.1783 8.11989 13.1454 8.00147 13.1599C7.88305 13.1744 7.77519 13.2352 7.70146 13.329Z" fill="black"/>
</svg>
