<svg width="15" height="18" viewBox="0 0 15 18" fill="none" xmlns="http://www.w3.org/2000/svg">
<path d="M14.0215 2.87659L7.97153 0.0890873L7.87778 0.0515873C7.60708 -0.0171958 7.32348 -0.0171958 7.05278 0.0515873L6.95903 0.0890873L0.909033 2.87659C0.623269 3.00816 0.383876 3.22293 0.22218 3.49279C0.0604838 3.76266 -0.0159837 4.07505 0.00278334 4.38909L0.215283 7.93909C0.335872 9.98092 1.03446 11.9464 2.22959 13.6063C3.42472 15.2662 5.06713 16.5521 6.96528 17.3141C7.12436 17.3857 7.29709 17.4219 7.47153 17.4203C7.63736 17.4229 7.8017 17.3887 7.95278 17.3203C9.85328 16.5602 11.4983 15.2751 12.6957 13.6151C13.8932 11.955 14.5936 9.98858 14.7153 7.94534L14.9278 4.39534C14.9478 4.08027 14.872 3.76651 14.7102 3.4954C14.5484 3.22429 14.3083 3.00855 14.0215 2.87659ZM10.7465 7.25159L7.40903 11.0016C7.35474 11.0637 7.28868 11.1145 7.21466 11.151C7.14064 11.1874 7.06013 11.2089 6.97778 11.2141H6.94653C6.78948 11.2152 6.63775 11.1572 6.52153 11.0516L4.22778 8.93909C4.10595 8.82637 4.03388 8.66987 4.02744 8.50402C4.02099 8.33817 4.08069 8.17655 4.19341 8.05471C4.30613 7.93288 4.46262 7.86081 4.62848 7.85436C4.79433 7.84792 4.95595 7.90762 5.07778 8.02034L6.90278 9.70159L9.80903 6.42659C9.92059 6.31044 10.0727 6.24184 10.2336 6.23509C10.3945 6.22834 10.5518 6.28395 10.6727 6.39034C10.7936 6.49673 10.8687 6.64568 10.8825 6.80614C10.8963 6.96659 10.8476 7.12617 10.7465 7.25159Z" fill="#898989"/>
</svg>
