<svg width="18" height="19" viewBox="0 0 18 19" fill="none" xmlns="http://www.w3.org/2000/svg">
<path d="M14.9862 6.04182C14.9607 6.04158 14.9353 6.03825 14.9106 6.03192L12.8023 5.48071C12.6438 5.43859 12.5484 5.27633 12.5905 5.11778L13.6571 1.03615C13.8503 0.296647 14.6097 -0.148067 15.3504 0.045171C16.0899 0.238409 16.5346 0.99775 16.3414 1.73849L15.2748 5.82005C15.2651 5.85781 15.2479 5.89326 15.2243 5.92431C15.2007 5.95536 15.1711 5.9814 15.1373 6.00091C15.0915 6.02779 15.0393 6.04191 14.9862 6.04182ZM13.2409 4.98023L14.7744 5.38156L15.7666 1.5886C15.8769 1.1662 15.6229 0.731424 15.2005 0.621173C14.7781 0.510923 14.3433 0.764874 14.2331 1.18728L13.2409 4.98023Z" fill="#8D8D8D"/>
<path d="M13.0107 13.6054C12.9852 13.6052 12.9598 13.6019 12.9351 13.5955L10.8256 13.0443C10.667 13.0022 10.5716 12.8399 10.6125 12.6814L12.5895 5.11779C12.6093 5.04099 12.6588 4.97656 12.727 4.93692C12.7951 4.89728 12.8756 4.88615 12.9524 4.90595L15.062 5.45716C15.2205 5.49927 15.3159 5.66154 15.275 5.82009L13.2981 13.3824C13.2883 13.4202 13.2711 13.4557 13.2475 13.4867C13.2239 13.5178 13.1943 13.5438 13.1605 13.5633C13.1147 13.5905 13.0627 13.6054 13.0107 13.6054ZM11.2641 12.5438L12.7976 12.9452L14.6247 5.95633L13.0912 5.555L11.2641 12.5438Z" fill="#8D8D8D"/>
<path d="M12.6832 14.854C12.6578 14.8538 12.6324 14.8505 12.6077 14.8441L10.4994 14.2942C10.3408 14.252 10.2454 14.0898 10.2863 13.9312L10.6134 12.6814C10.6332 12.6046 10.6827 12.5401 10.7509 12.5005C10.819 12.4609 10.8995 12.4497 10.9763 12.4695L13.0859 13.0207C13.2444 13.0628 13.3398 13.2251 13.2989 13.3837L12.9719 14.6335C12.9621 14.6713 12.9449 14.7067 12.9213 14.7378C12.8977 14.7689 12.8682 14.7949 12.8344 14.8144C12.7882 14.8402 12.7362 14.8538 12.6832 14.854ZM10.9367 13.7937L12.4702 14.195L12.6461 13.5199L11.1126 13.1186L10.9367 13.7937Z" fill="#8D8D8D"/>
<path d="M10.7495 17.9372C10.724 17.937 10.6986 17.9336 10.674 17.9273C10.6171 17.9122 10.5659 17.8807 10.5269 17.8366C10.4878 17.7925 10.4627 17.7379 10.4547 17.6796L10.1116 15.0993C10.1059 15.0576 10.1092 15.0152 10.1212 14.9749C10.1331 14.9345 10.1535 14.8971 10.1809 14.8652L10.9564 13.9697C10.9927 13.9278 11.0401 13.8969 11.093 13.8805C11.146 13.8641 11.2025 13.8628 11.2561 13.8768L12.1505 14.1109C12.2042 14.1248 12.2528 14.1536 12.291 14.1939C12.3291 14.2342 12.3551 14.2844 12.366 14.3388L12.6039 15.4982C12.6123 15.5394 12.6119 15.5819 12.6027 15.6229C12.5936 15.6639 12.5758 15.7024 12.5506 15.7361L10.9873 17.8183C10.9304 17.8951 10.8424 17.9372 10.7495 17.9372ZM10.7185 15.1538L10.9489 16.8806L11.9944 15.487L11.821 14.6397L11.2846 14.4998L10.7185 15.1538Z" fill="#8D8D8D"/>
<path d="M11.3147 15.7521C11.4632 15.7521 11.5835 15.6318 11.5835 15.4833C11.5835 15.3349 11.4632 15.2145 11.3147 15.2145C11.1662 15.2145 11.0459 15.3349 11.0459 15.4833C11.0459 15.6318 11.1662 15.7521 11.3147 15.7521Z" fill="#8D8D8D"/>
<path d="M15.915 7.418C15.8895 7.41775 15.8641 7.41442 15.8394 7.4081C15.6809 7.36598 15.5855 7.20372 15.6276 7.04517L16.8428 2.39751L15.9237 2.15226C15.7651 2.11015 15.671 1.94665 15.7131 1.7881C15.7553 1.62955 15.9187 1.53538 16.0773 1.57753L17.2813 1.89958C17.319 1.90956 17.3543 1.92686 17.3853 1.95051C17.4163 1.97415 17.4423 2.00367 17.4619 2.03738C17.4814 2.07109 17.4941 2.10833 17.4993 2.14696C17.5045 2.18558 17.502 2.22485 17.4919 2.26251L16.2024 7.19626C16.1677 7.33002 16.0476 7.418 15.915 7.418ZM0.582194 19C0.474095 18.9997 0.366118 18.9927 0.258905 18.9789C0.096642 18.9578 -0.0185585 18.808 0.00247912 18.6457C0.0235542 18.4834 0.173405 18.3682 0.335706 18.3892C0.753157 18.4437 1.18051 18.3533 1.55709 18.1576C1.10618 17.5964 1.01082 16.764 1.3688 16.1261C1.64626 15.6331 2.27431 15.2776 2.80445 15.5637C3.04352 15.6925 3.20454 15.9204 3.26897 16.2215C3.31727 16.4494 3.30861 16.7132 3.24418 16.9647C3.13022 17.4056 2.89363 17.812 2.56164 18.1477C2.9927 18.2777 3.50432 18.1662 3.814 17.8392C3.86972 17.7797 3.92301 17.7116 3.97997 17.6398C4.07162 17.5221 4.16702 17.4007 4.29212 17.293C4.4197 17.1827 4.57454 17.1022 4.72937 17.065C4.92633 17.018 5.11585 17.0415 5.27564 17.1332C5.54197 17.2843 5.63609 17.5568 5.71165 17.7748L5.73768 17.8492C5.79217 18.0015 5.86773 18.0721 5.89004 18.0758C5.91607 18.0746 5.98915 18.0176 6.03251 17.9842C6.12416 17.9136 6.23936 17.8244 6.39172 17.7848C6.67042 17.7117 6.91818 17.8355 7.09901 17.9272C7.12132 17.9384 7.14483 17.9495 7.16715 17.9607C7.88066 18.3038 8.85799 18.04 9.30271 17.3859C9.39436 17.2496 9.58017 17.215 9.71521 17.3066C9.85149 17.3983 9.88613 17.5841 9.79448 17.7191C9.49842 18.1564 9.03514 18.4772 8.49135 18.6234C7.94756 18.7696 7.38517 18.725 6.90952 18.4958C6.88473 18.4835 6.85875 18.4711 6.83396 18.4587C6.72618 18.4054 6.60356 18.3435 6.54161 18.3596C6.50568 18.3682 6.44996 18.4128 6.39543 18.4549C6.28518 18.5404 6.13406 18.6568 5.92597 18.6692C5.91359 18.6705 5.90118 18.6705 5.89004 18.6705C5.58408 18.6705 5.32023 18.4413 5.179 18.0499C5.1691 18.0226 5.16044 17.9954 5.1505 17.9681C5.10344 17.8306 5.05386 17.6894 4.98329 17.6486C4.91886 17.6114 4.78386 17.6535 4.68227 17.7415C4.60052 17.8121 4.52744 17.9062 4.4494 18.0053C4.38745 18.0858 4.32182 18.1676 4.24626 18.2481C3.90437 18.6085 3.41631 18.7943 2.92704 18.7943C2.61737 18.7943 2.30893 18.72 2.03765 18.5664C1.58802 18.8513 1.08263 19 0.582194 19ZM2.40313 16.0593C2.21979 16.0593 1.99681 16.2252 1.88784 16.4185C1.64382 16.852 1.72434 17.4429 2.04763 17.817C2.34493 17.5482 2.56914 17.2026 2.66945 16.8161C2.74254 16.5324 2.71652 16.1906 2.52328 16.0865C2.48611 16.0679 2.44524 16.0593 2.40313 16.0593Z" fill="#8D8D8D"/>
</svg>
