<svg width="13" height="15" viewBox="0 0 13 15" fill="none" xmlns="http://www.w3.org/2000/svg">
<path d="M6.22667 7.66667C4.11333 7.66667 2.39333 5.94667 2.39333 3.83333C2.39333 1.72 4.11333 0 6.22667 0C8.34 0 10.06 1.72 10.06 3.83333C10.06 5.94667 8.34 7.66667 6.22667 7.66667ZM6.22667 1C4.66667 1 3.39333 2.27333 3.39333 3.83333C3.39333 5.39333 4.66667 6.66667 6.22667 6.66667C7.78667 6.66667 9.06 5.39333 9.06 3.83333C9.06 2.27333 7.78667 1 6.22667 1ZM11.9533 14.3333C11.68 14.3333 11.4533 14.1067 11.4533 13.8333C11.4533 11.5333 9.10667 9.66667 6.22667 9.66667C3.34667 9.66667 1 11.5333 1 13.8333C1 14.1067 0.773333 14.3333 0.5 14.3333C0.226667 14.3333 0 14.1067 0 13.8333C0 10.9867 2.79333 8.66667 6.22667 8.66667C9.66 8.66667 12.4533 10.9867 12.4533 13.8333C12.4533 14.1067 12.2267 14.3333 11.9533 14.3333Z" fill="black"/>
</svg>
