<svg width="20" height="14" viewBox="0 0 20 14" fill="none" xmlns="http://www.w3.org/2000/svg">
<path d="M19.8611 3.93829C19.8136 3.79989 19.6451 3.69225 19.5044 3.69225H17.6769C17.5363 3.69225 17.3677 3.79989 17.3202 3.93829C17.2736 4.07376 17.2389 4.19462 17.2158 4.3083L15.995 0.931058C15.7937 0.374156 15.2604 0 14.6683 0H5.33175C4.73957 0 4.20644 0.374156 4.00499 0.931159L2.78421 4.3087C2.76105 4.19493 2.72628 4.07391 2.67971 3.93829C2.63217 3.79989 2.46362 3.69225 2.32299 3.69225H0.495486C0.354854 3.69225 0.186299 3.79989 0.138763 3.93829C-0.0463134 4.47715 -0.0462121 4.78563 0.138814 5.32454C0.18635 5.46294 0.354905 5.57058 0.495537 5.57058H2.32304C2.32476 5.57058 2.32659 5.57013 2.32836 5.57008L2.30079 5.64645C1.92816 5.77026 1.65911 6.12105 1.65911 6.53529V12.7259C1.6591 12.7851 1.67074 12.8436 1.69337 12.8983C1.71601 12.9529 1.74918 13.0026 1.791 13.0444C1.83283 13.0862 1.88248 13.1194 1.93712 13.142C1.99177 13.1647 2.05034 13.1763 2.10948 13.1763H4.37616C4.49561 13.1763 4.61016 13.1288 4.69462 13.0444C4.77909 12.9599 4.82654 12.8454 4.82654 12.7259V10.5335H15.1735V12.7259C15.1735 12.8454 15.2209 12.9599 15.3054 13.0444C15.3899 13.1288 15.5044 13.1763 15.6239 13.1763H17.8905C17.9497 13.1763 18.0082 13.1647 18.0629 13.142C18.1175 13.1194 18.1672 13.0862 18.209 13.0444C18.2508 13.0026 18.284 12.9529 18.3066 12.8983C18.3293 12.8436 18.3409 12.7851 18.3409 12.7259V6.53529C18.3409 6.12115 18.072 5.77041 17.6995 5.6465L17.6719 5.57008C17.6735 5.57013 17.6753 5.57053 17.677 5.57053H19.5045C19.6452 5.57053 19.8137 5.46289 19.8612 5.32449C20.0462 4.78563 20.0461 4.47715 19.8611 3.93829ZM5.5042 1.65738H14.4946L15.9191 5.5982H4.07979L5.5042 1.65738ZM5.75496 8.3744H3.85869C3.45184 8.3744 3.12208 8.04464 3.12208 7.63779C3.12208 7.231 3.45179 6.90119 3.85869 6.90119H5.75496C6.16175 6.90119 6.49156 7.23095 6.49156 7.63779C6.49161 8.04464 6.16175 8.3744 5.75496 8.3744ZM16.1412 8.3744H14.2449C13.8381 8.3744 13.5083 8.04464 13.5083 7.63779C13.5083 7.231 13.8381 6.90119 14.2449 6.90119H16.1412C16.548 6.90119 16.8778 7.23095 16.8778 7.63779C16.8778 8.04464 16.548 8.3744 16.1412 8.3744Z" fill="#898989"/>
</svg>
